<svg width="90" height="74" viewBox="0 0 90 74" fill="none" xmlns="http://www.w3.org/2000/svg">
<path d="M45 23L74.4449 53.75H15.5551L45 23Z" fill="white"/>
<g filter="url(#filter0_d)">
<path d="M67.6625 30.9567C65.5658 20.3192 56.2233 12.3333 45 12.3333C36.0892 12.3333 28.35 17.39 24.4958 24.79C15.215 25.7767 8 33.6392 8 43.1667C8 53.3725 16.2942 61.6667 26.5 61.6667H66.5833C75.0933 61.6667 82 54.76 82 46.25C82 38.11 75.6792 31.5117 67.6625 30.9567Z" fill="#03C37B"/>
</g>
<path d="M51.1667 40.0833V52.4167H38.8334V40.0833H29.5834L45 24.6667L60.4167 40.0833H51.1667Z" fill="white"/>
<defs>
<filter id="filter0_d" x="0" y="6.33334" width="90" height="65.3333" filterUnits="userSpaceOnUse" color-interpolation-filters="sRGB">
<feFlood flood-opacity="0" result="BackgroundImageFix"/>
<feColorMatrix in="SourceAlpha" type="matrix" values="0 0 0 0 0 0 0 0 0 0 0 0 0 0 0 0 0 0 127 0"/>
<feOffset dy="2"/>
<feGaussianBlur stdDeviation="4"/>
<feColorMatrix type="matrix" values="0 0 0 0 0.247059 0 0 0 0 0.239216 0 0 0 0 0.337255 0 0 0 0.25 0"/>
<feBlend mode="normal" in2="BackgroundImageFix" result="effect1_dropShadow"/>
<feBlend mode="normal" in="SourceGraphic" in2="effect1_dropShadow" result="shape"/>
</filter>
</defs>
</svg>
