<svg width="160" height="32" viewBox="0 0 160 32" fill="none" xmlns="http://www.w3.org/2000/svg">
<path d="M57.1757 17.8139L60.0687 6.28559H66.0744L60.1025 24.6022H54.2828L48.3109 6.28559H54.3336L57.1757 17.8139Z" fill="#FAFAFA"/>
<path d="M66.8695 15.3085C66.8695 13.4576 67.174 11.8212 67.7831 10.3992C68.3921 8.97723 69.2662 7.88251 70.4053 7.11509C71.5444 6.33638 72.8696 5.94702 74.3809 5.94702C76.287 5.94702 77.7757 6.59031 78.8472 7.87687L79.0502 6.28559H84.227V23.9082C84.227 25.522 83.8492 26.9214 83.0935 28.1064C82.3491 29.3027 81.2664 30.2169 79.8453 30.8489C78.4243 31.4921 76.7776 31.8138 74.9054 31.8138C73.5633 31.8138 72.2606 31.5599 70.9974 31.052C69.7455 30.5441 68.7869 29.8839 68.1214 29.0714L70.5068 25.7195C71.567 26.9722 72.9655 27.5986 74.7024 27.5986C77.2287 27.5986 78.4919 26.3007 78.4919 23.705V23.1295C77.3979 24.337 76.0163 24.9408 74.3471 24.9408C72.114 24.9408 70.3094 24.0887 68.9335 22.3846C67.5575 20.6692 66.8695 18.3782 66.8695 15.5116V15.3085ZM72.5877 15.664C72.5877 17.165 72.8696 18.3556 73.4336 19.2359C73.9975 20.1049 74.787 20.5394 75.802 20.5394C77.0314 20.5394 77.928 20.1275 78.4919 19.3036V11.6011C77.9393 10.766 77.0539 10.3484 75.8359 10.3484C74.8208 10.3484 74.0257 10.8055 73.4505 11.7196C72.8753 12.6225 72.5877 13.9373 72.5877 15.664Z" fill="#FAFAFA"/>
<path d="M94.7836 16.612L97.8288 6.28559H103.936L96.4753 27.6663L96.1539 28.445C95.0937 30.815 93.2215 32 90.5373 32C89.7929 32 89.009 31.8871 88.1857 31.6614V27.5817H88.9301C89.7309 27.5817 90.3399 27.4632 90.7572 27.2262C91.1858 27.0004 91.5016 26.5885 91.7046 25.9904L92.1614 24.7715L85.8003 6.28559H91.8907L94.7836 16.612Z" fill="#FAFAFA"/>
<path d="M106.118 19.0666C107.021 19.0666 107.771 19.3375 108.368 19.8792C108.966 20.4096 109.265 21.0924 109.265 21.9275C109.265 22.7627 108.966 23.4511 108.368 23.9928C107.771 24.5232 107.021 24.7885 106.118 24.7885C105.205 24.7885 104.449 24.5176 103.851 23.9759C103.265 23.4342 102.972 22.7514 102.972 21.9275C102.972 21.1037 103.265 20.4209 103.851 19.8792C104.449 19.3375 105.205 19.0666 106.118 19.0666Z" fill="#FAFAFA"/>
<path d="M118.468 6.28559L118.654 8.43551C119.951 6.77652 121.694 5.94702 123.882 5.94702C126.194 5.94702 127.756 6.8668 128.568 8.70637C129.809 6.8668 131.602 5.94702 133.948 5.94702C137.658 5.94702 139.564 8.19287 139.666 12.6846V24.6022H133.948V13.0401C133.948 12.1034 133.79 11.4206 133.474 10.9917C133.158 10.5629 132.583 10.3484 131.749 10.3484C130.621 10.3484 129.78 10.8506 129.228 11.8551L129.245 12.0921V24.6022H123.527V13.0739C123.527 12.1146 123.374 11.4206 123.07 10.9917C122.765 10.5629 122.184 10.3484 121.327 10.3484C120.233 10.3484 119.399 10.8506 118.824 11.8551V24.6022H113.122V6.28559H118.468Z" fill="#FAFAFA"/>
<path d="M151.779 24.9408C148.971 24.9408 146.698 24.1057 144.961 22.4354C143.224 20.7538 142.356 18.57 142.356 15.8841V15.4101C142.356 13.5366 142.7 11.8833 143.388 10.45C144.087 9.01672 145.102 7.91073 146.433 7.13202C147.764 6.34202 149.343 5.94702 151.17 5.94702C153.741 5.94702 155.772 6.7483 157.26 8.35087C158.749 9.94215 159.493 12.1654 159.493 15.0207V17.2383H148.159C148.362 18.2653 148.807 19.0723 149.495 19.6591C150.183 20.246 151.074 20.5394 152.168 20.5394C153.973 20.5394 155.382 19.9074 156.398 18.6434L159.003 21.7244C158.292 22.7062 157.283 23.4906 155.975 24.0775C154.678 24.653 153.279 24.9408 151.779 24.9408ZM151.136 10.3484C149.467 10.3484 148.474 11.4544 148.159 13.6664H153.911V13.2263C153.933 12.3121 153.702 11.6068 153.217 11.1102C152.732 10.6024 152.038 10.3484 151.136 10.3484Z" fill="#FAFAFA"/>
<path fill-rule="evenodd" clip-rule="evenodd" d="M26.4458 7.62939e-05L17.6306 15.2782L26.4458 30.5563L35.2609 15.2782L26.4458 7.62939e-05Z" fill="#1CE198"/>
<path fill-rule="evenodd" clip-rule="evenodd" d="M8.81523 7.71148e-07L0 15.2783L8.81523 30.5565L26.4457 30.5565L26.4458 30.5564L17.6306 15.2783L26.4458 0.000141251L26.4457 0L8.81523 7.71148e-07Z" fill="#03C37B"/>
<path fill-rule="evenodd" clip-rule="evenodd" d="M17.6305 15.2783L26.4457 7.71148e-07L44.0762 0L44.0762 7.71148e-07L35.261 15.2783L44.0762 30.5565L44.0762 30.5565L26.4457 30.5565L35.2609 15.2783L26.4457 7.53254e-05L17.6305 15.2783V15.2783Z" fill="#2587CC"/>
</svg>
