<svg width="18" height="18" viewBox="0 0 18 18" fill="none" xmlns="http://www.w3.org/2000/svg">
<path d="M16.3125 4.47012C15.7747 4.70216 15.1893 4.86915 14.5864 4.93419C15.2124 4.5623 15.6811 3.97477 15.9047 3.28184C15.3173 3.63128 14.6738 3.87631 14.0028 4.00606C13.7223 3.70623 13.3831 3.46736 13.0063 3.30436C12.6295 3.14135 12.2231 3.05769 11.8125 3.0586C10.1514 3.0586 8.81548 4.40509 8.81548 6.05743C8.81548 6.28946 8.8436 6.52149 8.88931 6.74473C6.402 6.61466 4.18364 5.42637 2.70884 3.60704C2.44011 4.06603 2.29929 4.58865 2.30103 5.12051C2.30103 6.16114 2.83013 7.07872 3.63696 7.61837C3.16148 7.59964 2.69714 7.46895 2.28169 7.23692V7.27384C2.28169 8.73106 3.31177 9.93868 4.68462 10.2164C4.42685 10.2834 4.16168 10.3176 3.89536 10.3184C3.70024 10.3184 3.51567 10.299 3.32935 10.2727C3.70903 11.4609 4.8147 12.324 6.1313 12.3522C5.10122 13.159 3.81099 13.6336 2.41001 13.6336C2.15864 13.6336 1.92661 13.6248 1.68579 13.5967C3.0147 14.4492 4.59145 14.9414 6.2895 14.9414C11.802 14.9414 14.8184 10.3746 14.8184 6.41075C14.8184 6.28067 14.8184 6.15059 14.8096 6.02051C15.3932 5.59337 15.9047 5.06427 16.3125 4.47012Z" fill="#3F3D56"/>
</svg>
