<svg width="508" height="350" viewBox="0 0 508 350" fill="none" xmlns="http://www.w3.org/2000/svg">
<g clip-path="url(#clip0)">
<path opacity="0.1" d="M353.897 105.192C354.283 104.642 354.496 103.989 354.508 103.317C354.508 99.2448 346.222 95.9497 336 95.9497C325.778 95.9497 317.492 99.2448 317.492 103.317C317.51 104.078 317.778 104.812 318.255 105.406C306.873 106.679 299.207 109.063 299.207 111.8C299.207 115.867 316.154 119.167 337.115 119.167C358.076 119.167 375.023 115.867 375.023 111.8C375.001 108.92 366.384 106.397 353.897 105.192Z" fill="#03C37B"/>
<g opacity="0.2">
<path opacity="0.2" d="M405.876 318.71C405.716 319.873 405.652 321.047 405.684 322.22C413.456 322.345 421.262 322.607 429.102 323.005C429.156 322.702 429.209 322.385 429.254 322.068C429.756 318.795 429.379 315.448 428.161 312.37C426.547 308.428 423.536 305.61 419.768 305.07C415.999 304.53 412.325 306.383 409.671 309.691C407.624 312.305 406.314 315.419 405.876 318.71Z" fill="#3F3D56"/>
<path opacity="0.2" d="M431.965 303.364C433.179 294.904 428.931 287.293 422.475 286.364C416.019 285.435 409.801 291.54 408.586 299.999C407.372 308.459 411.62 316.07 418.076 316.999C424.532 317.928 430.75 311.824 431.965 303.364Z" fill="#3F3D56"/>
<path opacity="0.2" d="M434.651 284.645C435.866 276.185 431.617 268.574 425.161 267.645C418.705 266.716 412.487 272.821 411.273 281.281C410.058 289.74 414.307 297.352 420.763 298.281C427.218 299.21 433.437 293.105 434.651 284.645Z" fill="#3F3D56"/>
<path opacity="0.2" d="M437.338 265.922C438.553 257.462 434.304 249.851 427.848 248.922C421.392 247.993 415.174 254.098 413.959 262.557C412.745 271.017 416.993 278.628 423.449 279.557C429.905 280.486 436.123 274.382 437.338 265.922Z" fill="#3F3D56"/>
<path opacity="0.2" d="M440.025 247.199C441.24 238.739 436.991 231.128 430.535 230.199C424.079 229.27 417.861 235.375 416.646 243.834C415.432 252.294 419.68 259.905 426.136 260.834C432.592 261.763 438.81 255.658 440.025 247.199Z" fill="#3F3D56"/>
<path opacity="0.2" d="M490.463 123.685C492.352 121.873 494.115 119.934 495.739 117.881L465.752 108.429L498.932 113.456C503.116 106.972 505.934 99.7007 507.214 92.0881C508.494 84.4754 508.209 76.6814 506.376 69.1829L458.496 85.9127L503.927 61.5927C501.032 54.3798 496.684 47.8409 491.154 42.3834C485.625 36.926 479.032 32.6667 471.787 29.8709C464.542 27.0751 456.799 25.8026 449.041 26.1328C441.284 26.4629 433.677 28.3886 426.695 31.7899C419.713 35.1912 413.505 39.9953 408.458 45.9029C403.411 51.8105 399.633 58.6951 397.36 66.128C395.086 73.5609 394.365 81.3829 395.243 89.1067C396.12 96.8306 398.576 104.291 402.458 111.023C399.516 113.834 396.884 116.953 394.609 120.328L431.5 146.795L391.046 126.4C386.793 134.802 384.701 144.134 384.958 153.55C385.215 162.966 387.813 172.169 392.518 180.327C384.835 187.659 379.369 197.008 376.744 207.304C374.119 217.6 374.44 228.428 377.672 238.55C380.904 248.672 386.916 257.679 395.02 264.541C403.124 271.404 412.993 275.844 423.5 277.356C434.006 278.868 444.725 277.389 454.432 273.089C464.138 268.79 472.44 261.842 478.388 253.041C484.337 244.24 487.691 233.941 488.069 223.322C488.446 212.702 485.831 202.191 480.522 192.989C489.701 184.226 495.671 172.629 497.474 160.06C499.278 147.492 496.81 134.681 490.468 123.685H490.463Z" fill="#03C37B"/>
<path opacity="0.1" d="M385.504 143.951C383.678 156.52 386.147 169.338 392.51 180.327C384.828 187.659 379.361 197.008 376.736 207.304C374.111 217.6 374.433 228.428 377.665 238.55C380.897 248.672 386.908 257.679 395.012 264.541C403.116 271.404 412.986 275.844 423.492 277.356C433.998 278.868 444.717 277.389 454.424 273.089C464.13 268.79 472.432 261.842 478.381 253.041C484.329 244.24 487.684 233.941 488.061 223.322C488.438 212.702 485.823 202.191 480.515 192.989C489.385 184.532 386.404 137.66 385.504 143.951Z" fill="black"/>
</g>
<g opacity="0.2">
<path opacity="0.2" d="M74.2373 302.159C74.4135 303.168 74.6746 304.159 75.0178 305.124C81.3537 303.082 87.7549 301.147 94.2216 299.319C94.1859 299.052 94.1458 298.775 94.0967 298.498C93.6387 295.654 92.4422 292.981 90.627 290.747C88.2678 287.921 85.0746 286.412 81.8725 287.005C78.6704 287.599 76.1818 290.131 74.9108 293.631C73.9486 296.367 73.7165 299.306 74.2373 302.159Z" fill="#3F3D56"/>
<path opacity="0.2" d="M83.4947 297.391C89.0026 296.518 92.5225 289.831 91.3567 282.453C90.1909 275.076 84.7808 269.803 79.2729 270.675C73.7651 271.547 70.2451 278.235 71.4109 285.612C72.5768 292.99 77.9868 298.263 83.4947 297.391Z" fill="#3F3D56"/>
<path opacity="0.2" d="M82.0412 281.461C87.5618 280.568 91.0694 273.849 89.8757 266.455C88.682 259.06 83.239 253.79 77.7184 254.683C72.1978 255.577 68.6901 262.295 69.8838 269.689C71.0775 277.084 76.5205 282.354 82.0412 281.461Z" fill="#3F3D56"/>
<path opacity="0.2" d="M77.8736 264.822C83.3815 263.949 86.9014 257.262 85.7356 249.884C84.5698 242.507 79.1597 237.233 73.6518 238.106C68.144 238.978 64.624 245.666 65.7898 253.043C66.9557 260.421 72.3657 265.694 77.8736 264.822Z" fill="#3F3D56"/>
<path opacity="0.2" d="M75.0678 248.534C80.5757 247.662 84.0957 240.974 82.9298 233.597C81.764 226.219 76.3539 220.946 70.8461 221.819C65.3382 222.691 61.8182 229.379 62.9841 236.756C64.1499 244.133 69.56 249.407 75.0678 248.534Z" fill="#3F3D56"/>
<path opacity="0.2" d="M90.899 116.894C91.9501 114.875 92.8635 112.787 93.6328 110.644L66.785 111.063L95.0421 106.076C96.8149 99.1514 97.1006 91.9291 95.8806 84.8858C94.8161 78.6527 92.5793 72.6787 89.289 67.2809L54.8997 94.387L85.2797 61.6462C74.5405 48.6133 57.4952 41.6615 39.9059 44.903C13.6155 49.734 -3.89807 75.4873 0.744562 102.41C2.57704 113.286 7.98986 123.236 16.1219 130.677C14.4777 133.826 13.1726 137.142 12.2285 140.567L49.209 152.359L10.9396 146.595C10.1424 151.937 10.2057 157.373 11.1269 162.695C12.9594 173.571 18.3722 183.521 26.5042 190.962C21.3705 200.795 19.6196 212.049 21.5227 222.979C26.1653 249.907 51.2248 267.806 77.4974 262.962C103.77 258.118 121.301 232.369 116.659 205.441C114.824 194.567 109.412 184.619 101.281 177.179C106.414 167.344 108.165 156.089 106.263 145.157C104.432 134.285 99.0244 124.337 90.899 116.894Z" fill="#03C37B"/>
<path opacity="0.1" d="M11.1401 162.695C12.9726 173.571 18.3854 183.521 26.5174 190.962C21.3837 200.795 19.6327 212.049 21.5359 222.979C26.1785 249.907 51.238 267.806 77.5105 262.962C103.783 258.118 121.314 232.369 116.672 205.441C114.837 194.567 109.425 184.619 101.295 177.179C106.24 167.704 10.1946 157.225 11.1401 162.695Z" fill="black"/>
</g>
<path d="M50.7744 264.944C50.7744 288.3 65.4069 307.195 83.4913 307.195L50.7744 264.944Z" fill="#46455B"/>
<path d="M83.4915 307.195C83.4915 283.581 99.8232 264.471 120.008 264.471L83.4915 307.195Z" fill="#03C37B"/>
<path d="M62.6285 267.061C62.6285 289.247 71.9584 307.196 83.4914 307.196L62.6285 267.061Z" fill="#03C37B"/>
<path d="M83.4915 307.195C83.4915 277.022 102.37 252.604 125.699 252.604L83.4915 307.195Z" fill="#46455B"/>
<path opacity="0.1" d="M235.412 332.431C361.275 332.431 463.307 329.035 463.307 324.845C463.307 320.655 361.275 317.259 235.412 317.259C109.549 317.259 7.51733 320.655 7.51733 324.845C7.51733 329.035 109.549 332.431 235.412 332.431Z" fill="#03C37B"/>
<path opacity="0.1" d="M79.7142 313.192C84.3152 313.192 88.045 312.56 88.045 311.781C88.045 311.002 84.3152 310.37 79.7142 310.37C75.1132 310.37 71.3833 311.002 71.3833 311.781C71.3833 312.56 75.1132 313.192 79.7142 313.192Z" fill="#03C37B"/>
<path d="M74.1172 305.226C74.1172 305.226 78.8713 305.084 80.3029 304.061C81.7345 303.039 87.608 301.829 87.9648 303.458C88.3216 305.088 95.1004 311.602 89.7487 311.642C84.397 311.683 77.2881 310.807 75.8565 309.937C74.4249 309.066 74.1172 305.226 74.1172 305.226Z" fill="#A8A8A8"/>
<path opacity="0.2" d="M89.8379 311.075C84.4862 311.116 77.3728 310.236 75.9457 309.365C74.8575 308.705 74.4205 306.32 74.2777 305.222H74.1172C74.1172 305.222 74.4204 309.062 75.8476 309.932C77.2747 310.803 84.3791 311.683 89.7398 311.638C91.2873 311.638 91.8225 311.075 91.7958 310.258C91.5817 310.758 90.9885 311.066 89.8379 311.075Z" fill="black"/>
<path d="M306.623 88.8283C300.223 57.2528 272.796 33.4641 239.428 33.4641C212.914 33.4641 190.058 48.5642 178.627 70.5224C151.2 73.2683 129.717 96.606 129.717 124.994C129.717 155.194 154.397 179.911 184.572 179.911H303.425C328.565 179.911 349.138 159.315 349.138 134.147C349.186 122.582 344.806 111.439 336.898 103.009C328.989 94.5792 318.155 89.5043 306.623 88.8283ZM254.051 115.818V150.6H224.795V115.818H193.71L239.423 70.0759L285.136 115.841L254.051 115.818Z" fill="#03C37B"/>
<path d="M194.718 110.594C194.272 108.045 194.491 105.299 193.322 103.004C193.209 102.733 193.026 102.497 192.792 102.321C192.5 102.164 192.172 102.088 191.842 102.102C190.785 102.062 189.732 102.049 188.675 102.075C188.381 102.075 188.033 102.12 187.881 102.379C187.864 102.407 187.85 102.437 187.841 102.468C186.633 101.129 185.718 99.4367 184.416 98.1866C184.603 98.1241 184.786 98.066 184.978 98.0169C184.978 97.8874 184.933 97.7669 184.907 97.6419C184.907 97.6017 184.884 97.566 184.875 97.5302C184.867 97.4945 184.835 97.3606 184.809 97.2757C184.782 97.1909 184.782 97.1909 184.764 97.1507C184.741 97.0705 184.714 96.9916 184.684 96.9141C184.684 96.8739 184.653 96.8337 184.635 96.7935L184.541 96.5569L184.487 96.4453C184.452 96.3649 184.416 96.2845 184.376 96.2086L184.322 96.1104C184.282 96.0256 184.238 95.9408 184.193 95.8559L184.149 95.7756C184.099 95.6863 184.046 95.597 183.997 95.5032C183.984 95.4886 183.973 95.472 183.966 95.4541C183.908 95.3514 183.845 95.2487 183.783 95.1505C183.274 94.32 182.713 93.5029 182.298 92.6502C181.571 91.15 181.33 89.4578 180.844 87.8594C180.358 86.2609 179.506 84.6357 178.061 83.8722C177.361 83.5151 176.424 83.1981 176.357 82.4078C176.355 82.1538 176.408 81.9023 176.513 81.6711C176.714 81.159 176.957 80.6647 177.24 80.1932C177.347 80.0235 177.459 79.8539 177.57 79.6842L177.66 79.5637C177.749 79.4386 177.842 79.3136 177.936 79.1975L178.052 79.0502C178.146 78.9341 178.244 78.827 178.342 78.7153L178.462 78.5859C178.601 78.4385 178.739 78.2956 178.886 78.1394C179.021 78.0349 179.129 77.8983 179.198 77.742C179.237 77.5873 179.244 77.4264 179.22 77.2687C179.149 75.9918 179.818 74.7997 180.558 73.7727C181.299 72.7458 182.173 71.7725 182.597 70.5714C182.646 70.433 182.686 70.2946 182.721 70.1517C182.734 70.1062 182.745 70.06 182.753 70.0133C182.775 69.9196 182.793 69.8258 182.811 69.7276L182.837 69.5668C182.837 69.4776 182.86 69.3883 182.869 69.3034V69.1293V68.8659V68.6917C182.869 68.6069 182.869 68.5176 182.869 68.4283C182.869 68.339 182.869 68.3167 182.869 68.2586C182.869 68.2006 182.869 68.0711 182.846 67.9774V67.8256C182.846 67.7184 182.815 67.6068 182.802 67.4996C182.802 67.4639 182.802 67.4282 182.802 67.3925C182.781 67.2466 182.754 67.0978 182.721 66.946C182.509 65.9974 182.235 65.0638 181.901 64.151C181.723 63.5903 181.496 63.0465 181.223 62.5258C181.388 62.4945 181.557 62.4588 181.722 62.4141C181.592 62.209 181.471 61.9974 181.361 61.7801C182.388 60.2664 183.158 58.5934 183.64 56.8286C183.896 55.568 184.045 54.288 184.086 53.0022C184.331 49.1357 184.581 45.2512 184.26 41.3936V41.2418C184.38 40.4133 184.389 39.5724 184.287 38.7415C184.184 37.1162 183.704 35.5372 182.886 34.1293C182.021 32.7631 180.594 31.5575 179.006 31.3968C178.744 31.6919 178.455 31.961 178.141 32.2005C177.663 31.7802 177.313 31.2342 177.129 30.6244C178.983 30.3331 180.69 29.4405 181.988 28.0838C183.286 26.7271 184.103 24.9812 184.314 23.1145C184.314 22.9761 184.345 22.8332 184.354 22.6948C184.354 22.6368 184.354 22.5787 184.354 22.5207C184.354 22.4626 184.354 22.3555 184.354 22.2751C184.354 22.1947 184.354 22.1278 184.354 22.0519V21.8688C184.354 21.784 184.354 21.6947 184.354 21.6098C184.354 21.525 184.354 21.5161 184.354 21.4714C184.354 21.4268 184.354 21.275 184.327 21.1812C184.329 21.147 184.329 21.1127 184.327 21.0785L184.287 20.766V20.699C184.287 20.5874 184.251 20.4758 184.229 20.3641V20.3284C184.207 20.2079 184.18 20.0918 184.149 19.9712C183.949 19.1586 183.632 18.3794 183.208 17.6584C183.556 16.8696 183.785 16.0328 183.885 15.176C183.885 15.0197 183.917 14.8679 183.926 14.7295C183.934 14.5911 183.926 14.533 183.926 14.4348C183.926 14.3366 183.926 14.3366 183.926 14.2919C183.926 14.1625 183.926 14.033 183.926 13.908C183.923 13.8947 183.923 13.8811 183.926 13.8678C183.861 11.7221 183.005 9.67646 181.522 8.12597C181.692 7.84299 181.834 7.54388 181.945 7.233C181.981 7.13924 182.012 7.04548 182.039 6.94725C182.066 6.85349 182.093 6.76419 182.115 6.67043V6.64811L182.168 6.39361C182.166 6.37883 182.166 6.36374 182.168 6.34896C182.168 6.25073 182.2 6.14804 182.213 6.04535C182.226 5.94266 182.213 5.8355 182.24 5.73281C182.24 5.70155 182.24 5.66583 182.24 5.63458C182.24 5.60333 182.24 5.48724 182.24 5.4158V5.30865C182.24 5.23721 182.24 5.16131 182.24 5.08987C182.24 5.01843 182.24 5.02736 182.24 4.99611C182.165 3.66967 181.593 2.4203 180.639 1.49705C179.684 0.573802 178.418 0.0444951 177.091 0.0146407C175.764 -0.0152137 174.475 0.456577 173.48 1.33597C172.485 2.21536 171.858 3.43775 171.724 4.75947C171.659 5.29914 171.676 5.84543 171.773 6.38021C170.476 7.01332 169.359 7.96173 168.523 9.13872C167.687 10.3157 167.159 11.6837 166.987 13.1177C166.931 13.5977 166.915 14.0816 166.938 14.5643C166.169 15.7731 165.709 17.1534 165.6 18.5827C165.6 18.6362 165.6 18.6898 165.6 18.7434C165.6 18.922 165.578 19.1051 165.578 19.2836C165.574 20.6061 165.872 21.9119 166.45 23.1012C167.027 24.2906 167.868 25.3321 168.909 26.1461C169.345 26.8497 169.918 27.4573 170.595 27.9321C170.718 28.2957 170.809 28.6691 170.867 29.0483C170.917 29.558 170.851 30.0724 170.673 30.5527C170.495 31.033 170.211 31.4666 169.842 31.821C169.65 31.9817 169.436 32.1156 169.235 32.2674C169.032 32.2095 168.818 32.2095 168.615 32.2674C166.314 32.9908 164.111 34.424 163.054 36.6162C162.819 37.1149 162.634 37.6353 162.501 38.17L162.376 38.362C160.978 40.552 159.973 42.9696 159.406 45.5057C159.116 46.805 158.933 48.1534 158.326 49.3366C158.181 49.5835 158.063 49.8455 157.974 50.1179C157.923 50.534 157.905 50.9536 157.921 51.3726C157.858 52.1316 157.417 52.8058 157.269 53.5514C157.18 53.9979 157.198 54.4444 157.122 54.8909C156.91 55.6579 156.631 56.4049 156.288 57.1233C155.816 58.436 155.82 59.8781 155.468 61.231C155.425 61.4538 155.33 61.6634 155.191 61.8426C154.912 62.0604 154.599 62.2294 154.264 62.3427C154.018 62.4965 153.809 62.7005 153.648 62.9414C153.487 63.1823 153.379 63.4546 153.331 63.7402C153.239 64.3162 153.228 64.9025 153.3 65.4815L153.474 67.7452L150.941 68.5131L146.785 69.7856C145.567 70.094 144.403 70.5863 143.333 71.2456C142.379 71.9106 141.626 72.8249 141.156 73.8888C140.735 74.9981 140.463 76.1588 140.349 77.3402C139.947 80.6452 139.232 83.9044 138.213 87.0736C138.128 87.3147 138.039 87.5602 137.95 87.8013L137.669 88.5112C137.646 88.5603 137.624 88.6095 137.606 88.6586L137.365 89.2256C137.258 89.4667 137.147 89.7033 137.031 89.94L146.767 93.1904C146.767 93.3065 146.789 93.4315 146.807 93.5699C147.146 95.9631 146.981 98.392 147.293 100.79C147.333 101.188 147.425 101.58 147.565 101.955C147.318 102.169 147.139 102.452 147.052 102.768C146.942 103.278 146.925 103.805 147.003 104.321C147.115 105.545 147.222 106.768 147.333 107.991C147.386 108.436 147.386 108.886 147.333 109.331C147.213 110.139 146.749 110.849 146.495 111.621C146.24 112.394 146.254 113.385 146.892 113.854C147.114 114.006 147.372 114.099 147.641 114.123C147.909 114.147 148.179 114.102 148.426 113.992C148.917 113.766 149.352 113.432 149.697 113.014C151.655 110.836 152.533 107.893 154.054 105.379C154.445 104.8 154.794 104.193 155.098 103.562C155.307 103.076 155.441 102.558 155.61 102.053C155.845 101.381 156.125 100.726 156.449 100.093C156.632 99.7314 157.341 98.8608 157.18 98.4589C156.931 97.7669 154.259 97.1597 153.612 96.9453C153.2 96.7611 152.733 96.7403 152.306 96.8873C152.241 96.9181 152.182 96.9571 152.127 97.0034L151.9 94.0521C152.297 94.0164 152.689 93.9673 153.077 93.9003C153.077 93.3467 153.064 92.7886 153.037 92.226C153.037 91.717 153.015 91.2035 153.001 90.6901C152.975 89.4399 152.948 88.1898 152.917 86.9619C152.909 86.2382 152.862 85.5154 152.778 84.7965C152.627 83.7026 152.292 82.631 152.185 81.5282C152.346 81.4004 152.536 81.3145 152.738 81.2782C153.051 81.228 153.368 81.216 153.684 81.2424H153.934C155.318 81.2222 156.673 80.8471 157.872 80.153C159.098 79.5145 160.235 78.7153 161.439 78.059L161.885 77.8224L162.055 77.7375L162.34 77.5947L162.577 77.483L162.63 77.4562C163.339 77.1169 164.057 76.7865 164.744 76.4159C164.791 76.4916 164.841 76.5647 164.896 76.6347C165.062 76.8616 165.292 77.0341 165.556 77.1302C165.821 77.2264 166.108 77.242 166.381 77.175C165.538 79.2065 164.548 81.171 164.298 83.3677C163.932 86.5422 165.19 89.6185 166.443 92.5743L170.408 101.95C170.854 102.986 171.429 104.147 172.513 104.393C173.202 104.486 173.902 104.346 174.502 103.995C176.317 103.129 177.949 101.888 179.613 100.727L179.68 100.781C181.183 101.968 182.124 103.625 183.163 105.21L185.941 109.782C185.922 110.011 185.961 110.241 186.053 110.452C186.255 110.83 186.519 111.173 186.833 111.465C188.599 113.369 189.763 115.754 190.178 118.319C190.214 118.975 190.404 119.615 190.731 120.185C191.476 121.221 193.064 121.154 194.183 120.564C194.529 120.406 194.827 120.16 195.048 119.85C195.236 119.517 195.354 119.15 195.396 118.77C195.601 117.824 195.713 116.861 195.731 115.894C195.713 114.14 195.039 112.394 194.718 110.594ZM178.766 26.4676C178.96 26.3393 179.148 26.2007 179.328 26.0524C178.951 27.1859 178.343 28.2288 177.544 29.1153C177.356 29.3206 177.156 29.5126 176.95 29.7002V29.5573C176.928 29.1108 176.95 28.6152 176.95 28.1419C177.665 27.7166 178.284 27.1462 178.766 26.4676ZM163.018 61.6998L163.045 61.6149C163.203 61.7291 163.34 61.8695 163.451 62.0302C163.343 62.2699 163.292 62.5316 163.303 62.7944C163.314 63.0572 163.386 63.3138 163.513 63.5438C163.745 63.9367 164.164 64.3028 164.075 64.7537C163.986 65.2047 163.415 65.3833 162.951 65.4592C162.34 65.5574 161.738 65.669 161.136 65.7896C161.136 65.7896 161.136 65.7896 161.136 65.7583C161.149 65.2552 161.082 64.7531 160.935 64.2715C161.975 63.825 162.617 62.7624 163.018 61.6998Z" fill="url(#paint0_linear)"/>
<path d="M181.58 9.71997C181.98 9.04176 182.224 8.28274 182.295 7.49812C182.365 6.71351 182.26 5.92304 181.987 5.18424C181.714 4.44543 181.28 3.77687 180.716 3.2272C180.152 2.67754 179.473 2.26059 178.728 2.0067C177.984 1.7528 177.192 1.66836 176.41 1.75949C175.628 1.85063 174.877 2.11507 174.21 2.53356C173.544 2.95204 172.978 3.51406 172.556 4.17871C172.134 4.84336 171.865 5.59393 171.768 6.37579C171.702 6.90941 171.718 7.45015 171.817 7.97868C170.302 8.69758 169.034 9.85051 168.173 11.2915C167.312 12.7325 166.898 14.3967 166.983 16.0735C166.266 17.1853 165.818 18.4491 165.674 19.7646C165.529 21.0801 165.693 22.4111 166.152 23.6521C166.611 24.8931 167.353 26.01 168.318 26.9142C169.283 27.8184 170.446 28.485 171.713 28.8612C172.981 29.2374 174.318 29.3128 175.62 29.0815C176.921 28.8502 178.151 28.3184 179.211 27.5285C180.272 26.7385 181.134 25.7121 181.729 24.5305C182.325 23.3489 182.637 22.0448 182.641 20.7214C182.641 20.583 182.641 20.449 182.641 20.3151C183.695 18.6932 184.166 16.7606 183.977 14.8351C183.788 12.9096 182.951 11.1057 181.602 9.71997H181.58Z" fill="#46455B"/>
<g opacity="0.1">
<path opacity="0.1" d="M171.757 6.63492L171.828 6.59471C171.81 6.50313 171.797 6.41069 171.788 6.31775C171.786 6.33705 171.786 6.35653 171.788 6.37582C171.773 6.46156 171.763 6.54805 171.757 6.63492Z" fill="black"/>
<path opacity="0.1" d="M183.935 15.3055C183.781 16.6007 183.33 17.8428 182.619 18.9355C182.619 19.0694 182.619 19.2034 182.619 19.3373C182.609 21.5301 181.754 23.6344 180.233 25.2124C178.712 26.7903 176.642 27.7204 174.454 27.809C172.265 27.8975 170.127 27.1378 168.484 25.688C166.84 24.2381 165.819 22.2097 165.632 20.0249C165.632 20.2571 165.6 20.4714 165.6 20.7214C165.6 22.9808 166.497 25.1476 168.093 26.7452C169.689 28.3428 171.853 29.2404 174.11 29.2404C176.367 29.2404 178.531 28.3428 180.127 26.7452C181.723 25.1476 182.619 22.9808 182.619 20.7214C182.619 20.583 182.619 20.4491 182.619 20.3151C183.332 19.2233 183.782 17.9807 183.935 16.6852C184.005 16.1149 184.016 15.5387 183.966 14.9662C183.979 15.0778 183.953 15.1939 183.935 15.3055Z" fill="black"/>
<path opacity="0.1" d="M182.28 6.31332C182.187 7.0296 181.948 7.71931 181.58 8.34037C181.732 8.49218 181.87 8.65291 182.026 8.81364C182.162 8.43695 182.255 8.046 182.303 7.64832C182.353 7.20424 182.346 6.75545 182.28 6.31332Z" fill="black"/>
</g>
<path d="M147.293 101.116C147.334 101.6 147.466 102.073 147.681 102.509C147.79 102.726 147.949 102.915 148.146 103.059C148.342 103.202 148.57 103.297 148.81 103.335C149.251 103.337 149.684 103.212 150.055 102.973C150.809 102.576 151.598 102.116 151.991 101.357C152.384 100.598 152.321 99.7493 152.254 98.9233L151.746 92.427C150.523 92.3912 149.292 92.3912 148.065 92.4582C146.838 92.5252 146.638 92.8109 146.807 93.9986C147.142 96.356 146.963 98.7536 147.293 101.116Z" fill="#FBBEBE"/>
<path d="M183.248 105.504L186.16 110.219C186.287 110.494 186.515 110.709 186.798 110.818C187.006 110.849 187.219 110.811 187.404 110.711C188.347 110.216 189.175 109.528 189.835 108.692C190.363 108.2 190.764 107.588 191.003 106.906C191.098 106.529 191.094 106.133 190.993 105.757C190.891 105.381 190.695 105.038 190.424 104.759C190.086 104.459 189.72 104.192 189.331 103.964C187.025 102.406 185.986 99.4501 183.712 97.8517C183.585 97.7445 183.43 97.6749 183.266 97.6508C183.097 97.6627 182.934 97.7181 182.793 97.8115L179.671 99.5171C178.333 100.254 178.748 100.343 179.774 101.138C181.268 102.308 182.195 103.942 183.248 105.504Z" fill="#FBBEBE"/>
<path d="M153.622 97.3562C153.207 97.1762 152.741 97.1603 152.315 97.3115C152.126 97.4263 151.967 97.5831 151.848 97.7697C151.73 97.9563 151.656 98.1677 151.633 98.3875C151.552 98.834 151.561 99.2805 151.441 99.6957C151.172 100.388 150.735 101.001 150.17 101.482C149.957 101.734 149.682 101.926 149.372 102.04C148.948 102.147 148.502 101.95 148.074 102.04C147.825 102.105 147.598 102.236 147.418 102.42C147.239 102.605 147.112 102.834 147.052 103.085C146.94 103.587 146.923 104.107 147.003 104.616L147.333 108.233C147.388 108.677 147.388 109.127 147.333 109.572C147.213 110.371 146.749 111.068 146.495 111.831C146.241 112.595 146.25 113.568 146.892 114.064C147.117 114.213 147.375 114.304 147.644 114.327C147.913 114.351 148.183 114.306 148.431 114.198C148.921 113.976 149.356 113.647 149.702 113.233C151.664 111.09 152.542 108.183 154.068 105.71C154.458 105.14 154.806 104.543 155.111 103.924C155.321 103.442 155.455 102.933 155.624 102.437C155.859 101.774 156.141 101.127 156.467 100.504C156.645 100.147 157.359 99.2894 157.198 98.8921C156.962 98.1688 154.282 97.566 153.622 97.3562Z" fill="#46455B"/>
<path d="M189.037 107.344C188.595 108.178 187.857 108.816 186.967 109.13C186.711 109.2 186.473 109.324 186.267 109.492C186.132 109.656 186.048 109.857 186.026 110.069C186.004 110.281 186.044 110.495 186.142 110.684C186.347 111.058 186.612 111.396 186.927 111.684C188.688 113.553 189.853 115.905 190.272 118.439C190.313 119.089 190.503 119.72 190.829 120.283C191.574 121.306 193.166 121.239 194.29 120.654C194.633 120.497 194.931 120.256 195.155 119.953C195.343 119.625 195.462 119.261 195.503 118.886C195.708 117.954 195.82 117.004 195.838 116.05C195.838 114.265 195.142 112.528 194.821 110.76C194.375 108.246 194.589 105.536 193.421 103.268C193.311 102.996 193.131 102.759 192.899 102.58C192.605 102.425 192.276 102.351 191.944 102.366C190.892 102.326 189.83 102.317 188.774 102.339C188.479 102.339 188.131 102.384 187.98 102.638C187.927 102.78 187.909 102.933 187.93 103.084C187.95 103.234 188.007 103.377 188.096 103.5C188.742 104.781 189.804 105.795 189.037 107.344Z" fill="#46455B"/>
<path d="M163.946 62.2937C163.651 62.5383 163.451 62.8787 163.381 63.2556C163.311 63.6324 163.375 64.022 163.562 64.3564C163.799 64.7449 164.218 65.1065 164.124 65.553C164.031 65.9995 163.464 66.1692 163 66.2451C158.906 66.8969 154.919 68.098 150.959 69.2946L146.794 70.5492C145.574 70.8506 144.407 71.3353 143.333 71.9869C142.381 72.637 141.628 73.5379 141.156 74.5899C140.733 75.682 140.46 76.8265 140.345 77.9921C139.72 82.256 138.922 86.5557 137.022 90.4223L147.115 93.7397C148.095 94.0986 149.11 94.353 150.143 94.4987C151.128 94.5828 152.119 94.5347 153.091 94.3558C153.028 92.1011 152.988 89.7749 152.926 87.5156C152.92 86.8022 152.874 86.0897 152.788 85.3814C152.636 84.3009 152.301 83.2472 152.194 82.1578C152.64 81.7738 153.341 81.8721 153.943 81.8855C155.328 81.8667 156.687 81.4998 157.894 80.8184C159.116 80.1844 160.258 79.3985 161.462 78.7511C163.491 77.6751 165.801 76.9652 167.353 75.2552C166.564 78.2689 164.677 80.8943 164.334 83.9884C163.991 87.0826 165.226 90.1722 166.488 93.061L170.462 102.294C170.908 103.312 171.483 104.46 172.567 104.701C173.256 104.791 173.956 104.653 174.56 104.308C178.217 102.593 181.143 99.3654 185.05 98.3384C184.755 96.4007 183.23 94.7978 182.374 93.0431C181.642 91.5653 181.406 89.8954 180.92 88.3193C180.434 86.7432 179.582 85.1403 178.128 84.3902C177.428 84.0375 176.487 83.725 176.424 82.9436C176.419 82.6921 176.472 82.4428 176.581 82.2159C177.102 80.8979 177.915 79.715 178.958 78.7556C179.09 78.6502 179.197 78.5158 179.27 78.3627C179.304 78.2164 179.312 78.0652 179.292 77.9162C179.216 76.6571 179.89 75.4829 180.63 74.4693C181.37 73.4558 182.249 72.4959 182.673 71.3127C183.4 69.2723 182.673 67.0309 181.959 64.9905C181.725 64.1437 181.318 63.3548 180.764 62.6732C179.827 61.6731 178.373 61.3829 177.009 61.2311C172.616 60.731 167.447 59.5746 163.946 62.2937Z" fill="#46455B"/>
<g opacity="0.1">
<path opacity="0.1" d="M180.645 71.2279C179.895 72.2414 179.221 73.4157 179.306 74.6747C179.326 74.8237 179.318 74.975 179.284 75.1212C179.211 75.2743 179.104 75.4087 178.972 75.5141C177.929 76.4735 177.116 77.6564 176.594 78.9744C176.486 79.2014 176.432 79.4507 176.438 79.7022C176.484 79.9385 176.59 80.1589 176.747 80.3419C176.903 80.525 177.104 80.6645 177.33 80.7469C177.784 80.0037 178.34 79.3275 178.981 78.7378C179.113 78.6323 179.22 78.4979 179.293 78.3449C179.327 78.1986 179.335 78.0473 179.315 77.8984C179.239 76.6393 179.913 75.465 180.654 74.4515C181.394 73.438 182.273 72.478 182.697 71.2948C183.062 70.1371 183.099 68.9005 182.804 67.723C182.774 67.839 182.738 67.9551 182.697 68.0712C182.264 69.2544 181.399 70.2188 180.645 71.2279Z" fill="black"/>
<path opacity="0.1" d="M163.487 62.9054C163.635 62.8754 163.772 62.8061 163.884 62.7048C163.997 62.6035 164.08 62.4738 164.125 62.3294C164.133 62.2717 164.133 62.213 164.125 62.1553L163.933 62.2937C163.736 62.4576 163.583 62.6678 163.487 62.9054Z" fill="black"/>
<path opacity="0.1" d="M150.143 91.275C149.11 91.1294 148.095 90.8749 147.115 90.516L138.195 87.5871C137.858 88.5549 137.463 89.5016 137.013 90.4222L147.115 93.7396C148.095 94.0985 149.11 94.353 150.143 94.4986C151.128 94.5827 152.119 94.5347 153.091 94.3558C153.06 93.2976 153.037 92.2216 153.011 91.1455C152.064 91.3135 151.1 91.357 150.143 91.275Z" fill="black"/>
<path opacity="0.1" d="M174.574 101.084C173.97 101.429 173.27 101.567 172.58 101.477C171.496 101.236 170.912 100.089 170.475 99.0707L166.501 89.8374C165.609 87.8059 164.74 85.694 164.419 83.5285C164.392 83.6803 164.37 83.8321 164.347 83.975C163.986 87.1004 165.239 90.1589 166.501 93.0476L170.475 102.281C170.921 103.299 171.496 104.446 172.58 104.687C173.27 104.778 173.97 104.64 174.574 104.295C178.231 102.58 181.156 99.352 185.063 98.3251C184.86 97.311 184.451 96.3492 183.863 95.4988C180.536 96.807 177.847 99.544 174.574 101.084Z" fill="black"/>
<path opacity="0.1" d="M167.367 72.0316C165.815 73.7282 163.504 74.4515 161.475 75.5275C160.258 76.1749 159.116 76.9607 157.907 77.5948C156.701 78.2775 155.342 78.646 153.956 78.6663C153.354 78.6663 152.676 78.5502 152.208 78.9342C152.306 79.9388 152.596 80.9166 152.761 81.9123C153.157 81.8587 153.558 81.8497 153.956 81.8855C155.342 81.8667 156.7 81.4998 157.907 80.8184C159.129 80.1844 160.271 79.3986 161.475 78.7512C162.813 78.0412 164.271 77.4876 165.556 76.7018C166.269 75.1901 166.874 73.6294 167.367 72.0316Z" fill="black"/>
</g>
<path d="M170.908 30.3387C170.957 30.8417 170.89 31.3493 170.712 31.8223C170.534 32.2952 170.25 32.721 169.882 33.0667C169.637 33.2766 169.347 33.4328 169.11 33.6516C168.898 33.8694 168.735 34.1309 168.634 34.4179C168.533 34.705 168.495 35.0107 168.524 35.3138C168.553 35.6168 168.648 35.9099 168.801 36.1726C168.955 36.4354 169.164 36.6614 169.414 36.8351C170.216 37.3262 171.238 37.1922 172.165 37.0315C173.402 36.8606 174.615 36.5444 175.778 36.0894C176.948 35.6302 177.944 34.8131 178.623 33.7543C178.134 33.4422 177.731 33.0137 177.448 32.5073C177.166 32.0008 177.013 31.4322 177.004 30.8521C176.942 29.6958 177.258 28.3831 176.527 27.4856C175.795 26.5882 174.498 26.6284 173.405 26.9231C172.865 27.0749 172.344 27.2803 171.804 27.4276C171.527 27.499 170.627 27.5035 170.466 27.7044C170.154 28.0705 170.876 29.7538 170.908 30.3387Z" fill="#FBBEBE"/>
<path opacity="0.1" d="M170.908 30.3387C170.957 30.8417 170.89 31.3493 170.712 31.8223C170.534 32.2952 170.25 32.721 169.882 33.0667C169.637 33.2766 169.347 33.4328 169.11 33.6516C168.898 33.8694 168.735 34.1309 168.634 34.4179C168.533 34.705 168.495 35.0107 168.524 35.3138C168.553 35.6168 168.648 35.9099 168.801 36.1726C168.955 36.4354 169.164 36.6614 169.414 36.8351C170.216 37.3262 171.238 37.1922 172.165 37.0315C173.402 36.8606 174.615 36.5444 175.778 36.0894C176.948 35.6302 177.944 34.8131 178.623 33.7543C178.134 33.4422 177.731 33.0137 177.448 32.5073C177.166 32.0008 177.013 31.4322 177.004 30.8521C176.942 29.6958 177.258 28.3831 176.527 27.4856C175.795 26.5882 174.498 26.6284 173.405 26.9231C172.865 27.0749 172.344 27.2803 171.804 27.4276C171.527 27.499 170.627 27.5035 170.466 27.7044C170.154 28.0705 170.876 29.7538 170.908 30.3387Z" fill="black"/>
<path d="M174.007 30.2762C177.31 30.2762 179.988 27.5955 179.988 24.2888C179.988 20.9821 177.31 18.3014 174.007 18.3014C170.704 18.3014 168.027 20.9821 168.027 24.2888C168.027 27.5955 170.704 30.2762 174.007 30.2762Z" fill="#FBBEBE"/>
<path d="M155.125 70.2143C155.02 70.691 154.829 71.1448 154.563 71.5538C153.863 72.7931 153.611 74.2357 153.849 75.6391C153.974 76.3348 154.269 76.9888 154.707 77.5433C155.145 78.0978 155.713 78.5357 156.361 78.8181C156.631 78.953 156.932 79.0141 157.234 78.9953C157.536 78.9765 157.827 78.8784 158.078 78.7109C157.28 77.6706 157.235 76.2508 157.284 74.9381C157.27 74.6934 157.328 74.4498 157.449 74.2372C157.483 74.1872 157.526 74.1446 157.576 74.1118C157.627 74.079 157.683 74.0568 157.742 74.0464C157.802 74.0359 157.862 74.0376 157.921 74.0512C157.979 74.0648 158.034 74.0901 158.083 74.1255C158.061 74.9524 158.221 75.774 158.551 76.5321C158.676 76.8223 158.89 77.1438 159.212 77.1348C159.658 77.1348 159.787 76.5053 159.769 76.0499C159.702 74.1925 159.609 72.2592 158.716 70.634C158.324 70.0767 158.023 69.4602 157.824 68.8079C157.817 68.5756 157.736 68.3517 157.592 68.1694C157.494 68.0919 157.38 68.0384 157.258 68.0131C156.744 67.8658 155.522 67.4148 155.098 67.8971C154.674 68.3793 155.205 69.5982 155.125 70.2143Z" fill="#FBBEBE"/>
<path d="M164.004 38.4111C163.317 38.3308 162.777 38.9603 162.403 39.5407C161.001 41.7009 159.993 44.0922 159.424 46.6041C159.134 47.8856 158.955 49.2161 158.344 50.3814C158.199 50.6237 158.081 50.8812 157.992 51.1494C157.943 51.5612 157.925 51.9761 157.938 52.3906C157.876 53.1362 157.434 53.8015 157.287 54.5382C157.198 54.9847 157.216 55.4312 157.136 55.8776C157.002 56.6456 156.578 57.3332 156.306 58.0699C155.829 59.3647 155.833 60.7845 155.481 62.1195C155.438 62.3383 155.343 62.5435 155.205 62.7178C154.968 62.9812 154.585 63.0437 154.277 63.2134C154.032 63.3632 153.821 63.5639 153.66 63.8018C153.498 64.0398 153.389 64.3095 153.34 64.593C153.247 65.16 153.237 65.7375 153.309 66.3075L153.586 69.8482C153.867 69.7276 154.032 69.4017 154.29 69.2097C154.736 68.8525 155.356 68.9329 155.909 69.0311L156.716 69.1784C157.542 69.3258 158.438 69.5178 158.946 70.1696C159.366 69.5088 159.129 68.54 159.771 68.1024C159.981 67.9595 160.244 67.9149 160.463 67.7899C160.671 67.6547 160.844 67.4714 160.966 67.2554C161.089 67.0393 161.158 66.7969 161.167 66.5486C161.181 66.0513 161.113 65.5552 160.967 65.0797C162.001 64.6332 162.644 63.5929 163.049 62.5437C163.494 61.2735 163.816 59.9638 164.013 58.6325C164.945 53.3684 165.797 48.0686 165.886 42.7242C165.945 41.8315 165.846 40.9353 165.596 40.0765C165.319 39.2282 164.891 38.5094 164.004 38.4111Z" fill="#03C37B"/>
<path opacity="0.1" d="M164.004 38.4111C163.317 38.3308 162.777 38.9603 162.403 39.5407C161.001 41.7009 159.993 44.0922 159.424 46.6041C159.134 47.8856 158.955 49.2161 158.344 50.3814C158.199 50.6237 158.081 50.8812 157.992 51.1494C157.943 51.5612 157.925 51.9761 157.938 52.3906C157.876 53.1362 157.434 53.8015 157.287 54.5382C157.198 54.9847 157.216 55.4312 157.136 55.8776C157.002 56.6456 156.578 57.3332 156.306 58.0699C155.829 59.3647 155.833 60.7845 155.481 62.1195C155.438 62.3383 155.343 62.5435 155.205 62.7178C154.968 62.9812 154.585 63.0437 154.277 63.2134C154.032 63.3632 153.821 63.5639 153.66 63.8018C153.498 64.0398 153.389 64.3095 153.34 64.593C153.247 65.16 153.237 65.7375 153.309 66.3075L153.586 69.8482C153.867 69.7276 154.032 69.4017 154.29 69.2097C154.736 68.8525 155.356 68.9329 155.909 69.0311L156.716 69.1784C157.542 69.3258 158.438 69.5178 158.946 70.1696C159.366 69.5088 159.129 68.54 159.771 68.1024C159.981 67.9595 160.244 67.9149 160.463 67.7899C160.671 67.6547 160.844 67.4714 160.966 67.2554C161.089 67.0393 161.158 66.7969 161.167 66.5486C161.181 66.0513 161.113 65.5552 160.967 65.0797C162.001 64.6332 162.644 63.5929 163.049 62.5437C163.494 61.2735 163.816 59.9638 164.013 58.6325C164.945 53.3684 165.797 48.0686 165.886 42.7242C165.945 41.8315 165.846 40.9353 165.596 40.0765C165.319 39.2282 164.891 38.5094 164.004 38.4111Z" fill="black"/>
<path d="M179.074 32.6783C178.087 33.7142 176.826 34.4482 175.439 34.7946C174.057 35.1357 172.646 35.3435 171.224 35.4152C170.788 35.4864 170.34 35.448 169.922 35.3036C169.716 35.2241 169.547 35.071 169.447 34.8739C169.348 34.6768 169.325 34.4497 169.382 34.2365C169.458 34.1083 169.511 33.9678 169.539 33.8213C169.539 33.4552 168.994 33.4239 168.647 33.5311C166.345 34.2454 164.138 35.6563 163.076 37.8218C162.541 39.077 162.206 40.4091 162.086 41.7687C161.587 45.3406 161.087 48.9437 161.756 52.4844C162.117 54.3641 162.804 56.1902 162.844 58.1012C162.871 59.1727 162.688 60.2398 162.697 61.3114C162.667 61.6866 162.768 62.0607 162.983 62.3696C163.148 62.5616 163.397 62.6821 163.513 62.9098C163.705 63.2849 163.446 63.8028 163.701 64.1466C164.017 64.5663 164.668 64.2627 165.101 63.968C167.271 62.4935 169.891 61.8341 172.5 62.1061C175.622 62.441 178.743 64.1153 181.785 63.2759C181.628 63.0485 181.494 62.8062 181.384 62.5526C179.867 57.5698 179.97 51.9932 182.24 47.3051C183.012 45.7023 184.024 44.1797 184.336 42.4206C184.456 41.5996 184.466 40.7663 184.367 39.9426C184.262 38.3368 183.78 36.7783 182.962 35.3929C182.102 34.0222 180.67 32.839 179.074 32.6783Z" fill="#03C37B"/>
<path d="M164.611 71.7547C164.369 72.4071 164.252 73.0994 164.267 73.7951C164.246 74.459 164.279 75.1234 164.365 75.782C164.418 76.3457 164.619 76.8851 164.95 77.3447C165.118 77.5708 165.349 77.742 165.614 77.8366C165.879 77.9312 166.167 77.9449 166.44 77.876C166.653 77.786 166.844 77.6495 166.999 77.4766C167.153 77.3036 167.267 77.0984 167.332 76.8759C167.461 76.428 167.556 75.9714 167.618 75.5096C167.876 74.1702 168.59 72.8753 168.604 71.4912C168.613 71.3269 168.587 71.1626 168.528 71.009C168.269 70.442 166.998 69.8035 166.377 69.8973C165.61 70.0178 164.896 71.0983 164.611 71.7547Z" fill="#FBBEBE"/>
<path opacity="0.1" d="M181.865 37.7325C181.749 38.9246 182.9 39.8221 183.355 40.9249C183.539 41.4419 183.644 41.9838 183.667 42.5322C183.988 46.3407 183.738 50.1671 183.489 53.9756C183.452 55.244 183.303 56.5066 183.043 57.7484C182.4 60.3515 180.813 62.6107 179.274 64.7984C179.041 65.1568 178.77 65.4891 178.467 65.7896C178.013 66.1582 177.508 66.4589 176.968 66.6826L171.661 69.2588C170.996 69.5525 170.363 69.9162 169.775 70.3438C169.091 70.8798 168.554 71.5802 168.214 72.3798C167.184 71.8529 166.113 71.3796 165.092 70.8528C164.851 70.7278 164.579 70.567 164.539 70.2991C164.485 69.942 164.86 69.6875 165.119 69.4062C165.6 68.9284 165.748 68.2185 166.011 67.5934C166.867 65.5396 169.012 64.227 169.788 62.1463C170.087 61.3471 170.176 60.4408 170.707 59.771C171.009 59.4355 171.349 59.1358 171.719 58.8781C172.533 58.1832 173.279 57.4134 173.949 56.5787C174.253 56.2638 174.502 55.9 174.685 55.5026C174.855 54.89 174.914 54.2519 174.859 53.6185C174.899 51.5378 175.84 49.6001 176.415 47.5998C176.955 45.7201 177.182 43.7467 177.892 41.9205C178.601 40.0944 179.965 38.2236 181.865 37.7325Z" fill="black"/>
<path d="M182.557 37.7325C182.441 38.9246 183.587 39.8221 184.042 40.9249C184.228 41.4417 184.334 41.9836 184.359 42.5322C184.675 46.3407 184.43 50.1671 184.18 53.9756C184.136 55.2447 183.98 56.5073 183.712 57.7484C183.07 60.3515 181.482 62.6107 179.943 64.7984C179.71 65.1568 179.44 65.4891 179.136 65.7896C178.682 66.1582 178.178 66.4589 177.638 66.6826L172.326 69.2588C171.662 69.5545 171.029 69.918 170.44 70.3438C169.757 70.881 169.221 71.581 168.879 72.3798C167.848 71.8529 166.783 71.3796 165.757 70.8528C165.516 70.7278 165.244 70.567 165.204 70.2991C165.146 69.942 165.52 69.6875 165.779 69.4062C166.265 68.9284 166.412 68.2185 166.671 67.5934C167.523 65.5396 169.672 64.227 170.448 62.1463C170.747 61.3471 170.836 60.4408 171.367 59.771C171.667 59.4333 172.007 59.1335 172.38 58.8781C173.193 58.1832 173.94 57.4134 174.609 56.5787C174.913 56.2638 175.162 55.9 175.345 55.5026C175.513 54.8896 175.572 54.2519 175.519 53.6185C175.559 51.5378 176.496 49.6001 177.071 47.5998C177.615 45.7201 177.838 43.7467 178.547 41.9205C179.257 40.0944 180.666 38.2236 182.557 37.7325Z" fill="#03C37B"/>
<path d="M176.969 15.0332C175.127 14.8091 173.262 15.1966 171.661 16.136C171.898 16.136 172.134 16.136 172.37 16.1895C174.14 16.4036 175.797 17.1684 177.109 18.3761C178.421 19.5838 179.321 21.1734 179.682 22.9206C180.043 24.6678 179.848 26.4844 179.122 28.1142C178.397 29.7439 177.179 31.1046 175.639 32.0041C177.826 32.0741 179.956 31.2982 181.586 29.8375C183.217 28.3768 184.222 26.3435 184.395 24.1599C184.567 21.9764 183.892 19.8103 182.511 18.1115C181.13 16.4128 179.148 15.3119 176.977 15.0376L176.969 15.0332Z" fill="#46455B"/>
<path d="M179.586 19.7704C179.794 20.2385 179.906 20.7431 179.918 21.2549C179.929 21.7668 179.839 22.2759 179.653 22.7529C179.613 22.6324 179.569 22.5118 179.515 22.3912C178.463 20.0472 175.225 19.0783 172.277 20.2258C171.493 20.5044 170.777 20.9455 170.175 21.5202C169.573 22.095 169.1 22.7904 168.785 23.561C168.036 21.2929 169.556 18.6943 172.353 17.6049C175.296 16.4575 178.534 17.4263 179.586 19.7704Z" fill="#46455B"/>
<g opacity="0.1">
<path opacity="0.1" d="M179.607 22.5698C179.471 20.9252 178.862 19.3554 177.852 18.0508C176.842 16.7463 175.476 15.7631 173.919 15.2206C173.127 15.408 172.367 15.7087 171.661 16.1136C171.898 16.1136 172.134 16.1136 172.371 16.1672C174.083 16.3744 175.692 17.0977 176.985 18.2412C178.277 19.3846 179.192 20.8942 179.607 22.5698Z" fill="black"/>
<path opacity="0.1" d="M180.985 16.3503C180.849 14.706 180.239 13.1367 179.229 11.8323C178.22 10.528 176.854 9.54453 175.297 9.0011C174.505 9.19895 173.745 9.50864 173.04 9.92086C173.276 9.92086 173.513 9.92086 173.754 9.97444C175.462 10.1801 177.068 10.8996 178.359 12.038C179.65 13.1763 180.566 14.68 180.985 16.3503Z" fill="black"/>
<path opacity="0.1" d="M181.021 7.06783C180.935 6.07962 180.566 5.13728 179.957 4.35452C179.349 3.57177 178.526 2.98206 177.59 2.65656C177.111 2.7729 176.651 2.95787 176.225 3.20573C176.368 3.20573 176.511 3.20573 176.671 3.24145C177.697 3.36667 178.661 3.79895 179.437 4.48169C180.213 5.16444 180.765 6.06583 181.021 7.06783Z" fill="black"/>
<path opacity="0.1" d="M184.204 21.4089C184.368 23.4517 183.792 25.4854 182.582 27.1381C181.371 28.7909 179.607 29.9523 177.612 30.4101C177.037 31.0348 176.373 31.5704 175.641 31.9996C176.96 32.0478 178.273 31.788 179.475 31.2406C180.676 30.6933 181.735 29.8735 182.565 28.8461C183.396 27.8187 183.976 26.6118 184.261 25.321C184.545 24.0302 184.526 22.6909 184.204 21.4089Z" fill="black"/>
</g>
<path d="M259.657 110.577C259.112 110.125 258.436 109.863 257.729 109.828C257.022 109.794 256.324 109.989 255.737 110.385C254.845 111.045 254.457 112.144 254.091 113.18C253.556 114.711 252.691 116.198 252.548 117.819C252.151 122.283 249.025 126.038 248.089 130.414C247.745 131.977 247.678 133.62 247.032 135.08C246.722 135.721 246.364 136.337 245.961 136.924C244.393 139.392 243.05 141.997 241.947 144.706C241.171 144.943 240.534 145.688 239.914 146.282C239.119 147.043 238.167 147.622 237.126 147.979C236.702 148.074 236.306 148.268 235.971 148.546C235.525 149.019 235.525 149.782 235.155 150.332C234.892 150.691 234.542 150.979 234.138 151.167C234.111 151.04 234.09 150.912 234.076 150.783C233.982 150.099 233.906 149.416 233.835 148.733C234.873 147.216 235.338 145.378 235.145 143.55C234.952 141.721 234.115 140.021 232.783 138.754C232.7 137.688 232.731 136.617 232.876 135.557C232.942 135.303 232.935 135.035 232.856 134.784C232.777 134.533 232.63 134.309 232.43 134.138C232.212 133.999 231.944 133.968 231.712 133.852C231.376 133.626 231.09 133.333 230.874 132.99C230.247 132.279 229.389 131.813 228.452 131.674C227.515 131.535 226.56 131.733 225.754 132.231C224.505 133.066 223.845 134.548 222.779 135.615C222.226 136.165 221.571 136.598 221.022 137.147C219.925 138.324 219.213 139.809 218.98 141.402C218.751 142.986 218.686 144.59 218.788 146.188C218.777 146.673 218.846 147.155 218.993 147.617C219.152 147.996 219.372 148.346 219.644 148.653C220.951 150.359 222.678 151.696 224.657 152.533C224.671 152.627 224.678 152.723 224.679 152.819C224.679 152.966 224.679 153.113 224.643 153.265L224.425 153.229C223.622 153.131 222.775 153.229 222.03 152.921C220.759 152.372 220.246 150.756 218.993 150.122C218.889 150.067 218.78 150.022 218.667 149.988C218.37 147.907 217.758 145.883 216.852 143.987C216.406 143.094 215.902 142.165 215.849 141.156C215.876 140.218 216.087 139.295 216.469 138.437C217.477 135.37 218.273 132.238 218.85 129.061C219.255 127.07 219.662 125.078 220.072 123.087C220.626 122.583 221.114 122.012 221.526 121.386C222.385 120.142 222.888 118.686 222.98 117.176C223.02 116.423 222.91 115.669 222.658 114.959C222.405 114.248 222.014 113.595 221.508 113.037C221.285 112.765 221.006 112.544 220.689 112.39C220.373 112.236 220.027 112.152 219.675 112.144C219.372 112.18 219.08 112.277 218.816 112.431C218.552 112.584 218.322 112.791 218.141 113.037C217.596 113.8 217.203 114.661 216.982 115.573C216.536 117.055 216.09 118.6 216.29 120.136C216.473 121.408 217.093 122.788 216.46 123.904C214.373 127.561 212.932 131.673 211.385 135.593C210.985 136.534 210.66 137.504 210.412 138.495C210.102 140.093 210.048 141.73 210.252 143.344C210.619 146.372 211.202 149.369 211.996 152.314C212.321 153.653 212.705 155.069 213.472 156.172C213.2 157.668 213.133 159.194 213.275 160.708C213.294 161.058 213.385 161.4 213.543 161.713C213.799 162.072 214.109 162.39 214.462 162.655C214.94 163.1 215.318 163.643 215.569 164.247C215.821 164.851 215.941 165.501 215.92 166.155C215.942 167.378 216.179 168.587 216.62 169.727C217.686 172.91 218.757 176.094 219.689 179.322C219.891 179.92 220.002 180.544 220.019 181.175C220.019 182.068 219.595 182.961 219.791 183.854C219.941 184.257 220.063 184.671 220.157 185.091C220.164 185.415 220.122 185.739 220.032 186.05C219.452 188.573 217.775 194.391 218.065 196.967L218.641 196.766C218.395 200.177 217.343 203.517 216.959 206.928C216.707 209.412 216.734 211.916 217.04 214.393C217.206 215.501 217.301 216.618 217.325 217.738C217.325 218.742 217.164 219.733 217.124 220.733C217.104 222.077 217.183 223.42 217.361 224.752C217.535 226.841 217.868 228.914 218.355 230.954C219.283 234.418 218.658 238.026 218.761 241.616C218.881 244.12 218.855 246.629 218.685 249.13C218.592 250.188 218.444 251.242 218.413 252.304C218.319 255.457 219.252 258.595 218.922 261.73C218.765 263.199 218.391 264.855 219.314 266.012C219.608 266.373 220.005 266.632 220.317 266.976C220.487 267.136 220.612 267.337 220.68 267.561C220.748 267.784 220.757 268.021 220.705 268.248C220.585 268.601 220.259 268.86 220.184 269.231C220.099 269.811 220.737 270.213 221.29 270.401L221.446 270.445C221.434 270.639 221.464 270.833 221.532 271.014C221.6 271.196 221.706 271.361 221.843 271.499C222.189 271.763 222.601 271.927 223.033 271.972L230.169 273.356C231.761 273.664 233.492 273.955 234.986 273.414C235.043 273.63 235.159 273.826 235.32 273.981C235.665 274.245 236.075 274.409 236.506 274.455L243.642 275.839C245.462 276.191 247.46 276.517 249.083 275.615C249.551 275.365 249.946 274.998 250.229 274.548C250.457 274.123 250.589 273.652 250.616 273.17C250.643 272.688 250.564 272.206 250.385 271.758C250.249 271.298 249.971 270.894 249.591 270.601C249.085 270.323 248.508 270.199 247.932 270.244C247.443 270.28 246.953 270.205 246.496 270.025C246.356 269.952 246.235 269.848 246.14 269.722C246.496 269.275 246.84 268.829 247.165 268.382C246.858 268.311 246.719 267.887 246.644 267.574C245.725 262.94 247.014 258.198 247.201 253.465C247.296 251.096 247.11 248.723 246.648 246.397C246.474 245.504 246.264 244.656 246.14 243.772C245.484 239.16 247.237 234.476 246.679 229.851C246.416 227.69 247.344 225.431 247.674 223.278C247.964 221.367 247.776 219.421 247.589 217.474L246.113 202.294C245.912 200.244 245.703 198.146 244.828 196.279C244.392 195.236 244.185 194.111 244.222 192.98C246.006 191.957 247.647 190.551 249.663 190.547C250.051 189.073 248.936 184.425 248.285 183.05C245.745 177.629 244.741 171.613 245.381 165.659C245.618 163.521 244.766 161.364 245.051 159.23C245.094 158.73 245.233 158.243 245.462 157.797C245.577 157.576 245.746 157.387 245.953 157.249C246.161 157.111 246.4 157.027 246.648 157.007C246.523 155.725 246.358 154.435 246.14 153.153C246.874 152.404 247.477 151.536 247.923 150.586C248.851 148.644 249.261 146.501 249.801 144.42C250.782 140.755 252.281 137.254 253.467 133.655C254.653 130.057 254.421 126.253 255.273 122.556C255.754 120.519 257 118.746 258.752 117.604C259.43 117.158 260.201 116.814 260.67 116.153C261.022 115.61 261.209 114.975 261.205 114.327C261.245 113.626 261.127 112.924 260.859 112.275C260.591 111.626 260.18 111.045 259.657 110.577ZM232.399 266.793C232.533 266.61 232.662 266.427 232.783 266.235C232.31 266.208 231.712 265.931 231.654 265.458C231.64 264.984 231.692 264.511 231.81 264.051C231.945 263.231 231.894 262.39 231.663 261.591C231.498 261.038 231.253 260.506 231.074 259.953C230.9 259.335 230.761 258.707 230.66 258.073C230.223 255.805 229.542 253.591 228.63 251.47C227.739 249.411 228.43 247.165 228.439 244.92C228.439 243.861 228.278 242.781 228.546 241.754C228.702 241.147 228.992 240.584 229.157 239.968C229.522 238.553 229.063 237.066 228.613 235.677C230.374 231.507 230.611 226.748 230.972 222.211C231.174 219.675 231.376 217.145 231.578 214.621C231.668 213.491 231.77 212.317 232.363 211.353C233.417 214.578 234.045 217.926 234.232 221.314C234.25 222.293 234.364 223.268 234.571 224.225C234.852 225.283 235.4 226.243 235.766 227.27C236.578 229.529 236.493 231.998 236.859 234.369C237.006 235.329 237.229 236.276 237.372 237.236C237.987 241.473 236.993 245.763 236.003 249.929C235.396 252.483 235.494 255.309 235.356 257.93C235.227 260.444 235.093 262.958 235.155 265.476C235.155 266.244 235.204 267.03 235.195 267.811C234.953 267.782 234.708 267.768 234.464 267.771C233.975 267.806 233.484 267.732 233.028 267.552C232.745 267.37 232.526 267.105 232.399 266.793Z" fill="url(#paint1_linear)"/>
<path d="M247.955 270.276C248.53 270.231 249.106 270.354 249.614 270.628C249.991 270.921 250.268 271.323 250.408 271.78C250.586 272.226 250.664 272.705 250.636 273.184C250.608 273.664 250.475 274.131 250.247 274.553C249.964 274.999 249.569 275.364 249.101 275.611C247.478 276.504 245.48 276.187 243.66 275.839L236.525 274.468C236.094 274.43 235.683 274.276 235.334 274.022C235.117 273.783 234.98 273.482 234.943 273.162C234.905 272.842 234.969 272.518 235.124 272.236C235.435 271.672 235.899 271.208 236.462 270.896C238.514 269.619 240.922 269.11 243.277 268.838C244.169 268.731 245.003 268.445 245.672 269.066C246.028 269.391 246.01 269.798 246.51 270.061C246.97 270.239 247.463 270.312 247.955 270.276Z" fill="#3F3D56"/>
<path d="M234.473 267.82C235.047 267.775 235.621 267.898 236.128 268.173C236.507 268.463 236.785 268.866 236.921 269.325C237.101 269.77 237.18 270.249 237.154 270.728C237.127 271.208 236.994 271.675 236.765 272.097C236.48 272.543 236.086 272.907 235.619 273.155C233.996 274.048 231.998 273.731 230.174 273.383L223.038 272.008C222.608 271.971 222.196 271.816 221.847 271.561C221.63 271.323 221.492 271.023 221.454 270.703C221.415 270.383 221.478 270.058 221.633 269.776C221.954 269.212 222.425 268.748 222.993 268.436C225.041 267.164 227.453 266.672 229.808 266.382C230.7 266.271 231.534 265.989 232.203 266.605C232.555 266.931 232.542 267.338 233.037 267.601C233.493 267.78 233.984 267.855 234.473 267.82Z" fill="#3F3D56"/>
<path d="M232.716 191.917C228.591 191.934 224.473 192.249 220.393 192.859C220.124 192.884 219.86 192.954 219.613 193.065C218.748 193.511 218.721 194.726 218.743 195.699C218.801 199.659 217.45 203.495 217.004 207.424C216.748 209.891 216.774 212.379 217.08 214.84C217.242 215.942 217.337 217.053 217.365 218.166C217.365 219.157 217.2 220.144 217.16 221.14C217.139 222.468 217.217 223.796 217.392 225.114C217.567 227.19 217.899 229.249 218.387 231.275C219.31 234.717 218.685 238.303 218.783 241.866C218.902 244.354 218.874 246.846 218.699 249.331C218.605 250.385 218.458 251.429 218.427 252.488C218.333 255.613 219.261 258.738 218.931 261.864C218.775 263.319 218.395 264.989 219.319 266.114C219.613 266.471 220.01 266.73 220.318 267.074C220.486 267.232 220.611 267.431 220.679 267.652C220.748 267.873 220.759 268.107 220.71 268.333C220.585 268.686 220.242 268.945 220.188 269.311C220.099 269.887 220.737 270.289 221.29 270.472C223.396 271.119 225.655 271.065 227.729 270.319C229.802 269.573 231.579 268.175 232.792 266.333C232.319 266.306 231.721 266.029 231.663 265.561C231.649 265.09 231.702 264.619 231.819 264.163C231.956 263.348 231.906 262.513 231.672 261.721C231.512 261.167 231.262 260.64 231.088 260.091C230.914 259.478 230.776 258.854 230.673 258.225C230.239 255.97 229.56 253.769 228.648 251.662C227.757 249.617 228.452 247.384 228.461 245.161C228.461 244.107 228.305 243.031 228.568 242.013C228.724 241.406 229.014 240.848 229.184 240.227C229.549 238.821 229.09 237.347 228.64 235.968C230.424 231.824 230.646 227.074 231.008 222.573L231.619 214.983C231.708 213.862 231.815 212.692 232.404 211.737C233.457 214.939 234.085 218.265 234.272 221.631C234.287 222.606 234.399 223.576 234.607 224.529C234.888 225.573 235.432 226.529 235.802 227.551C236.609 229.784 236.525 232.244 236.89 234.601C237.037 235.557 237.256 236.494 237.399 237.45C238.014 241.66 237.015 245.933 236.021 250.063C235.414 252.599 235.508 255.421 235.369 258.015C235.236 260.511 235.102 263.007 235.164 265.507C235.218 267.806 235.396 270.276 234.161 272.204C235.543 272.91 236.97 273.629 238.514 273.763C240.309 273.858 242.081 273.321 243.522 272.245C244.948 271.17 246.188 269.868 247.192 268.391C246.88 268.32 246.746 267.896 246.671 267.588C245.752 262.984 247.045 258.256 247.237 253.568C247.331 251.215 247.147 248.859 246.688 246.549C246.514 245.656 246.3 244.812 246.175 243.937C245.529 239.356 247.282 234.7 246.729 230.096C246.47 227.944 247.397 225.703 247.727 223.56C248.017 221.662 247.835 219.729 247.647 217.818L246.18 202.749C245.984 200.709 245.774 198.624 244.9 196.771C243.856 194.538 244.503 191.788 244.392 189.328C240.708 190.951 236.74 191.831 232.716 191.917Z" fill="#46455B"/>
<path d="M241.332 147.291C242.546 143.972 244.122 140.798 246.033 137.826C246.435 137.242 246.793 136.629 247.103 135.991C247.754 134.544 247.821 132.91 248.164 131.356C249.123 127.007 252.254 123.275 252.655 118.854C252.798 117.243 253.663 115.765 254.203 114.242C254.564 113.211 254.975 112.121 255.849 111.465C256.436 111.073 257.133 110.88 257.837 110.914C258.542 110.947 259.217 111.206 259.764 111.653C260.298 112.115 260.718 112.694 260.993 113.346C261.267 113.997 261.389 114.702 261.348 115.408C261.349 116.051 261.163 116.681 260.812 117.22C260.34 117.877 259.573 118.229 258.895 118.662C257.146 119.791 255.899 121.549 255.412 123.574C254.555 127.248 254.787 131.021 253.596 134.598C252.406 138.174 250.921 141.656 249.926 145.313C249.369 147.38 248.972 149.51 248.04 151.439C247.107 153.368 245.524 155.109 243.442 155.605C243.31 154.277 242.967 152.979 242.425 151.76C241.8 150.35 240.806 148.724 241.332 147.291Z" fill="#A0616A"/>
<path d="M218.895 152.386C218.722 149.777 218.05 147.226 216.915 144.871C216.469 143.978 215.969 143.085 215.916 142.063C215.943 141.13 216.153 140.212 216.535 139.362C217.545 136.308 218.342 133.189 218.921 130.026L220.152 124.087C220.703 123.587 221.19 123.02 221.602 122.4C222.463 121.166 222.967 119.718 223.06 118.216C223.101 117.467 222.993 116.717 222.741 116.01C222.489 115.303 222.099 114.653 221.593 114.099C221.367 113.832 221.086 113.617 220.77 113.467C220.454 113.318 220.109 113.238 219.76 113.233C219.457 113.269 219.164 113.367 218.9 113.52C218.636 113.674 218.407 113.88 218.226 114.126C217.69 114.879 217.304 115.728 217.088 116.627C216.643 118.1 216.197 119.631 216.393 121.158C216.571 122.422 217.196 123.793 216.558 124.9C214.466 128.539 213.026 132.62 211.474 136.509C211.077 137.443 210.753 138.408 210.506 139.393C210.193 140.981 210.136 142.609 210.336 144.215C210.701 147.229 211.283 150.214 212.076 153.145C212.522 154.984 213.079 156.984 214.622 158.087C215.893 156.051 217.178 154.055 218.895 152.386Z" fill="#A0616A"/>
<path d="M227.596 152.899C231.825 152.899 235.253 149.467 235.253 145.233C235.253 140.999 231.825 137.567 227.596 137.567C223.367 137.567 219.938 140.999 219.938 145.233C219.938 149.467 223.367 152.899 227.596 152.899Z" fill="#A0616A"/>
<path d="M224.737 153.64C224.692 155.038 224.086 156.346 223.488 157.614C223.127 158.377 222.654 159.23 221.829 159.4C224.151 160.33 226.562 161.022 229.023 161.467C229.865 161.656 230.733 161.706 231.592 161.614C232.314 161.485 233.007 161.228 233.639 160.855C235.025 160.069 236.214 158.976 237.115 157.661C238.017 156.346 238.608 154.843 238.843 153.265C237.899 153.389 236.943 153.414 235.993 153.341C235.456 153.356 234.934 153.162 234.535 152.801C234.284 152.451 234.141 152.035 234.125 151.604C233.955 150.336 233.82 149.065 233.719 147.791C231.836 147.864 229.983 148.29 228.256 149.046C227.542 149.358 226.846 149.72 226.111 149.988C225.665 150.149 224.376 150.18 224.064 150.47C223.582 150.93 224.764 152.676 224.737 153.64Z" fill="#A0616A"/>
<path d="M228.577 157.926C228.389 156.934 227.895 156.025 227.163 155.329C226.432 154.633 225.501 154.184 224.501 154.046C223.698 153.953 222.851 154.046 222.106 153.747C220.835 153.198 220.3 151.595 219.069 150.966C217.838 150.336 216.241 150.921 215.332 151.975C214.422 153.028 214.038 154.462 213.762 155.801C213.333 157.659 213.193 159.571 213.347 161.471C213.368 161.82 213.461 162.16 213.619 162.472C213.875 162.829 214.183 163.145 214.533 163.409C215.011 163.849 215.389 164.388 215.641 164.987C215.892 165.586 216.012 166.233 215.992 166.883C216.007 168.106 216.243 169.316 216.687 170.455C217.753 173.616 218.824 176.781 219.751 179.987C219.954 180.58 220.065 181.2 220.081 181.827C220.059 182.72 219.635 183.613 219.854 184.483C219.999 184.885 220.12 185.295 220.215 185.711C220.222 186.034 220.18 186.356 220.09 186.667C219.506 189.176 217.829 194.953 218.119 197.512C221.923 196.11 227.663 195.279 231.694 194.833C232.803 194.705 233.919 194.639 235.035 194.636C237.711 194.636 240.516 195.141 243.013 194.159C245.328 193.266 247.25 191.114 249.739 191.105C250.127 189.645 249.012 185.028 248.365 183.662C245.828 178.281 244.828 172.302 245.475 166.387C245.707 164.262 244.86 162.119 245.15 159.998C245.191 159.501 245.329 159.018 245.555 158.574C245.673 158.353 245.843 158.165 246.051 158.027C246.259 157.889 246.498 157.806 246.746 157.784C246.45 154.458 245.799 151.174 244.806 147.988C244.445 146.854 243.794 145.541 242.608 145.465C241.537 145.394 240.748 146.358 239.976 147.113C239.18 147.869 238.229 148.443 237.189 148.796C236.763 148.89 236.365 149.084 236.029 149.363C235.583 149.832 235.583 150.595 235.213 151.149C234.571 152.14 232.93 152.234 232.537 153.341C232.455 153.667 232.397 153.998 232.363 154.332C232.181 154.984 231.816 155.57 231.311 156.02C230.572 156.873 229.632 157.528 228.577 157.926Z" fill="#2F2E41"/>
<path d="M232.943 136.486C233.009 136.233 233.002 135.967 232.923 135.718C232.844 135.47 232.696 135.248 232.497 135.08C232.262 134.969 232.021 134.872 231.775 134.79C231.44 134.561 231.156 134.266 230.941 133.923C230.313 133.215 229.456 132.751 228.52 132.614C227.584 132.477 226.63 132.675 225.825 133.173C224.572 134.004 223.917 135.477 222.846 136.535C222.298 137.084 221.642 137.513 221.089 138.062C219.994 139.229 219.28 140.703 219.042 142.286C218.813 143.862 218.749 145.457 218.85 147.046C218.837 147.527 218.906 148.007 219.055 148.465C219.216 148.841 219.435 149.187 219.707 149.492C221.066 151.27 222.888 152.639 224.974 153.448C227.07 154.189 229.518 154.1 231.391 152.899C231.579 152.795 231.733 152.64 231.837 152.452C231.926 152.174 231.926 151.874 231.837 151.595C231.614 150.483 231.721 149.33 232.145 148.278C232.517 147.545 232.847 146.793 233.135 146.023C233.318 145.142 233.342 144.234 233.206 143.344C232.988 141.067 232.591 138.772 232.943 136.486Z" fill="#46455B"/>
<path d="M362.513 255.367C362.513 299.293 390.039 334.842 424.058 334.842L362.513 255.367Z" fill="#46455B"/>
<path d="M424.058 334.842C424.058 290.417 454.772 254.474 492.738 254.474L424.058 334.842Z" fill="#03C37B"/>
<path d="M384.812 259.323C384.812 301.052 402.361 334.819 424.058 334.819L384.812 259.323Z" fill="#03C37B"/>
<path d="M424.058 334.842C424.058 278.08 459.562 232.15 503.442 232.15L424.058 334.842Z" fill="#46455B"/>
<path opacity="0.1" d="M421.387 350C429.838 350 436.688 348.84 436.688 347.41C436.688 345.98 429.838 344.821 421.387 344.821C412.936 344.821 406.085 345.98 406.085 347.41C406.085 348.84 412.936 350 421.387 350Z" fill="#03C37B"/>
<path d="M411.107 335.378C411.107 335.378 419.835 335.11 422.466 333.235C425.097 331.359 435.895 329.118 436.546 332.127C437.197 335.137 449.662 347.084 439.81 347.165C429.959 347.245 416.914 345.629 414.287 344.039C411.66 342.45 411.107 335.378 411.107 335.378Z" fill="#A8A8A8"/>
<path opacity="0.2" d="M439.971 346.116C430.119 346.196 417.074 344.58 414.447 342.99C412.449 341.767 411.651 337.396 411.388 335.373H411.094C411.094 335.373 411.647 342.419 414.273 344.022C416.9 345.624 429.941 347.241 439.797 347.147C442.638 347.125 443.623 346.111 443.57 344.611C443.186 345.557 442.102 346.098 439.971 346.116Z" fill="black"/>
<path opacity="0.1" d="M363.708 16.3414C364.094 15.7913 364.307 15.1382 364.319 14.4661C364.319 10.3942 356.033 7.09912 345.811 7.09912C335.589 7.09912 327.303 10.3942 327.303 14.4661C327.312 15.2234 327.567 15.9571 328.03 16.5557C316.649 17.8282 308.982 20.2124 308.982 22.9494C308.982 27.0168 325.93 30.3164 346.891 30.3164C367.851 30.3164 384.799 27.0168 384.799 22.9494C384.812 20.0695 376.196 17.5469 363.708 16.3414Z" fill="#03C37B"/>
<path opacity="0.1" d="M136.706 24.3781C137.092 23.828 137.304 23.1749 137.317 22.5028C137.317 18.4309 129.03 15.1358 118.809 15.1358C108.587 15.1358 100.3 18.4309 100.3 22.5028C100.319 23.2642 100.587 23.9984 101.063 24.5924C89.6817 25.8649 82.0154 28.2491 82.0154 30.9861C82.0154 35.0536 98.9848 38.3531 119.924 38.3531C140.862 38.3531 157.832 35.0536 157.832 30.9861C157.809 28.1062 149.193 25.5836 136.706 24.3781Z" fill="#03C37B"/>
<path opacity="0.1" d="M266.815 18.1898C267.854 17.587 269.259 18.163 269.973 19.1363C270.686 20.1097 270.865 21.3688 271.065 22.5386C271.462 25.1818 271.752 28.2134 269.973 30.2003C272.88 21.3732 281.243 14.6134 290.488 13.6267" stroke="#03C37B" stroke-width="3" stroke-miterlimit="10"/>
<path opacity="0.1" d="M118.068 63.2759C118.737 62.8875 119.638 63.2759 120.097 63.8831C120.507 64.5442 120.748 65.2951 120.802 66.0709C121.056 67.772 121.248 69.7187 120.102 70.9823C121.08 68.1478 122.834 65.6455 125.164 63.7611C127.495 61.8767 130.307 60.6859 133.281 60.3246" stroke="#03C37B" stroke-width="3" stroke-miterlimit="10"/>
<path opacity="0.1" d="M318.758 76.6705C319.427 76.2821 320.328 76.6705 320.788 77.2777C321.197 77.9388 321.439 78.6897 321.492 79.4655C321.746 81.1666 321.938 83.1133 320.792 84.3768C321.77 81.5423 323.524 79.0401 325.855 77.1557C328.185 75.2713 330.997 74.0805 333.971 73.7192" stroke="#03C37B" stroke-width="3" stroke-miterlimit="10"/>
<path opacity="0.1" d="M302.306 226.792V215.943L307.301 220.943L308.55 219.649L301.414 212.505L294.279 219.649L295.527 220.894L300.522 215.943V226.792H302.306Z" fill="#03C37B"/>
<path opacity="0.1" d="M194.379 262.511V251.662L199.374 256.662L200.623 255.367L193.487 248.224L186.352 255.367L187.6 256.613L192.595 251.662V262.511H194.379Z" fill="#03C37B"/>
<path opacity="0.1" d="M273.764 294.212V283.362L278.759 288.363L280.007 287.068L272.872 279.924L265.736 287.068L266.985 288.314L271.98 283.362V294.212H273.764Z" fill="#03C37B"/>
</g>
<defs>
<linearGradient id="paint0_linear" x1="166.376" y1="121.064" x2="166.376" y2="-6.56026e-05" gradientUnits="userSpaceOnUse">
<stop stop-color="#808080" stop-opacity="0.25"/>
<stop offset="0.54" stop-color="#808080" stop-opacity="0.12"/>
<stop offset="1" stop-color="#808080" stop-opacity="0.1"/>
</linearGradient>
<linearGradient id="paint1_linear" x1="34572.4" y1="75536.2" x2="41152.6" y2="74857" gradientUnits="userSpaceOnUse">
<stop stop-color="#808080" stop-opacity="0.25"/>
<stop offset="0.54" stop-color="#808080" stop-opacity="0.12"/>
<stop offset="1" stop-color="#808080" stop-opacity="0.1"/>
</linearGradient>
<clipPath id="clip0">
<rect width="508" height="350" fill="white"/>
</clipPath>
</defs>
</svg>
